<?xml version="1.0" encoding="UTF-8" standalone="no"?>
<!-- Created with Inkscape (http://www.inkscape.org/) -->

<svg
   xmlns:dc="http://purl.org/dc/elements/1.1/"
   xmlns:cc="http://creativecommons.org/ns#"
   xmlns:rdf="http://www.w3.org/1999/02/22-rdf-syntax-ns#"
   xmlns:svg="http://www.w3.org/2000/svg"
   xmlns="http://www.w3.org/2000/svg"
   xmlns:sodipodi="http://sodipodi.sourceforge.net/DTD/sodipodi-0.dtd"
   xmlns:inkscape="http://www.inkscape.org/namespaces/inkscape"
   version="1.1"
   id="svg2"
   width="442.76785"
   height="206.41473"
   viewBox="0 0 442.76785 206.41473"
   sodipodi:docname="intro-img.svg"
   inkscape:version="0.92.5 (2060ec1f9f, 2020-04-08)">
  <metadata
     id="metadata8">
    <rdf:RDF>
      <cc:Work
         rdf:about="">
        <dc:format>image/svg+xml</dc:format>
        <dc:type
           rdf:resource="http://purl.org/dc/dcmitype/StillImage" />
        <dc:title></dc:title>
      </cc:Work>
    </rdf:RDF>
  </metadata>
  <defs
     id="defs6">
    <marker
       inkscape:stockid="RazorWire"
       id="RazorWire"
       refX="0"
       refY="0"
       orient="auto"
       style="overflow:visible"
       inkscape:isstock="true">
      <path
         id="path1124"
         transform="scale(0.8)"
         style="fill:#335b7d;fill-opacity:1;fill-rule:evenodd;stroke:#335b7d;stroke-width:0.10000001pt;stroke-opacity:1"
         d="m 0.02272727,-0.74009011 v 1.4375 L -7.7585227,3.0099099 H 10.678977 L 3.4914773,0.69740989 v -1.4375 L 10.741477,-2.8963401 H -7.7272727 Z"
         inkscape:connector-curvature="0" />
    </marker>
  </defs>
  <sodipodi:namedview
     pagecolor="#ffffff"
     bordercolor="#666666"
     borderopacity="1"
     objecttolerance="10"
     gridtolerance="10"
     guidetolerance="10"
     inkscape:pageopacity="0"
     inkscape:pageshadow="2"
     inkscape:window-width="3752"
     inkscape:window-height="2096"
     id="namedview4"
     showgrid="false"
     fit-margin-top="0"
     fit-margin-left="0"
     fit-margin-right="0"
     fit-margin-bottom="0"
     inkscape:zoom="2.1902552"
     inkscape:cx="77.071105"
     inkscape:cy="-128.56341"
     inkscape:window-x="88"
     inkscape:window-y="27"
     inkscape:window-maximized="1"
     inkscape:current-layer="layer2" />
  <g
     inkscape:groupmode="layer"
     id="layer1"
     inkscape:label="Layer 1"
     style="display:inline"
     transform="translate(-95.296365,-87.920325)" />
  <g
     inkscape:groupmode="layer"
     id="layer2"
     inkscape:label="Layer 2"
     style="display:inline"
     transform="translate(-95.296365,-87.920325)">
    <g
       id="g1299"
       transform="translate(10.501059,-410.91102)">
      <path
         style="display:inline;fill:#04305a"
         d="m 85.166786,667.60212 c -1.07786,-2.50667 0.35211,-10.91228 2.20948,-12.98772 3.76397,-4.2059 9.16655,0.68541 6.03536,5.46421 -1.06674,1.62806 -1.24463,2.99861 -0.61137,4.71048 1.31263,3.54837 -0.74177,5.10455 -2.28048,1.72744 -1.52954,-3.35698 -2.24039,-3.33737 -3.54825,0.0979 -0.89987,2.36364 -1.15343,2.50241 -1.80474,0.98772 z m 5.96563,-9.57105 c 0,-1.80866 -1.9573,-1.47847 -2.3455,0.39568 -0.21599,1.04271 0.15888,1.49986 1,1.21948 0.74002,-0.24667 1.3455,-0.9735 1.3455,-1.61516 z m 6.92706,10.06802 c -3.43718,-2.35358 -1.83554,-9.84308 2.328464,-10.88818 1.8285,-0.45892 2.92716,-0.13338 3.86132,1.14417 1.84408,2.52192 0.0445,5.50932 -3.31869,5.50932 -2.847954,0 -2.623444,0.93399 0.36022,1.49852 1.0129,0.19165 2.00923,0.38289 2.21408,0.42497 0.20484,0.0421 -0.18776,0.75151 -0.87245,1.57651 -1.35583,1.63367 -2.898184,1.88147 -4.572944,0.73469 z m 4.302114,-7.83886 c -0.33229,-0.33229 -1.1948,-0.36781 -1.91667,-0.0789 -0.797734,0.31922 -0.560784,0.55618 0.60417,0.60416 1.05416,0.0434 1.64479,-0.19293 1.3125,-0.52522 z m 15.47083,7.40417 c -1.59912,-1.59912 -1.46977,-5.86017 0.24662,-8.12464 0.90627,-1.19565 2.36037,-1.71273 4.2182,-1.5 2.40457,0.27533 2.88383,0.83245 3.15551,3.66818 0.51515,5.37694 -4.37637,9.20042 -7.62033,5.95646 z m 5.20895,-5.94732 c -0.28984,-0.46897 -1.17543,-0.85268 -1.96797,-0.85268 -1.48778,0 -1.99694,3.11071 -0.71843,4.38922 0.90714,0.90713 3.40248,-2.37789 2.6864,-3.53654 z m 5.45367,4.74515 c -0.68446,-1.50222 -0.77008,-3.37544 -0.22856,-5 1.36714,-4.10143 2.89651,-3.55616 2.53038,0.90217 -0.2527,3.07714 -0.0541,3.73298 0.86089,2.84265 0.65415,-0.63654 1.4787,-2.57202 1.83233,-4.30107 0.98422,-4.81229 2.60633,-3.67147 2.94906,2.07405 0.25482,4.2717 0.0487,5.04287 -1.21797,4.5568 -0.83859,-0.3218 -1.79067,-0.15474 -2.11574,0.37124 -1.08028,1.74792 -3.50113,0.98873 -4.61039,-1.44584 z m 11.56368,1.07071 c -0.30776,-0.80202 -0.41708,-3.18582 -0.24293,-5.29734 0.27909,-3.38401 0.64263,-3.86355 3.06663,-4.04525 3.05614,-0.22907 3.69399,1.64572 1.25,3.67405 -0.825,0.68469 -1.5,2.28823 -1.5,3.56343 0,2.74305 -1.77255,4.19288 -2.5737,2.10511 z m 8.7737,0.13146 c -2.94157,-2.94157 0.10743,-9.8 4.3567,-9.8 3.17491,0 3.14119,1.78417 -0.0567,3 -1.56274,0.59415 -2.5,1.73171 -2.5,3.03427 0,1.14607 0.45,1.80565 1,1.46573 1.74886,-1.08086 3.22667,0.52195 1.92611,2.08903 -1.43348,1.72724 -3.13393,1.80315 -4.72611,0.21097 z m 8.80109,-0.79797 c -1.31455,-2.45624 -0.49597,-7.34643 1.50815,-9.0097 0.75937,-0.63022 2.41794,-0.99881 3.68572,-0.81909 1.82187,0.25827 2.30504,0.9556 2.30504,3.32676 0,2.53388 -0.42991,3.04942 -2.76695,3.31806 -1.52183,0.17493 -2.51992,0.71778 -2.21798,1.20632 0.30194,0.48855 1.25521,0.61727 2.11838,0.28604 1.14347,-0.43879 1.47125,-0.0877 1.20776,1.29367 -0.52203,2.73677 -4.44535,3.00411 -5.84012,0.39794 z m 336.53008,1.0484 c -1.15397,-1.86717 0.48782,-9.05043 2.06855,-9.05043 1.10887,0 1.28239,0.94032 0.78424,4.25 -0.70702,4.6974 -1.7901,6.51991 -2.85279,4.80043 z m 4.48248,-2.2171 c 0.0249,-6.0736 0.9466,-7.83333 4.10298,-7.83333 1.58585,0 2.88337,0.46583 2.88337,1.03518 0,0.70619 0.60226,0.71287 1.89499,0.021 2.65058,-1.41855 4.31561,0.87323 3.91954,5.39491 -0.39443,4.50283 -2.14839,4.71337 -2.81784,0.33824 l -0.50331,-3.28935 -1.38362,3.28769 c -1.65377,3.92959 -3.73914,3.68089 -3.29188,-0.39258 0.38892,-3.54207 -1.48171,-2.10216 -1.9832,1.52656 -0.53488,3.87027 -2.83695,3.79818 -2.82103,-0.0883 z m 16.55778,1.59524 c -1.97797,-1.97797 -1.9813,-3.7353 -0.0143,-7.53914 1.23655,-2.39123 2.11162,-2.94723 4.25,-2.70034 2.25407,0.26025 2.69282,0.7981 2.69282,3.30109 0,2.5132 -0.47855,3.09251 -3,3.63168 -1.65,0.35283 -2.55,0.74666 -2,0.87517 2.62162,0.61258 3.05853,0.70856 3.87244,0.85066 1.30322,0.22751 -1.40924,3.15231 -2.92346,3.15231 -0.71837,0 -2.01327,-0.70714 -2.87755,-1.57143 z m -407.90476,-0.0952 c -1.38662,-1.38661 -0.58738,-3.33333 1.36851,-3.33333 1.74632,0 1.87841,-0.29295 0.93061,-2.06392 -1.31668,-2.46024 0.23704,-4.93608 3.09764,-4.93608 2.52046,0 3.32063,1.68569 1.32919,2.80016 -1.12494,0.62954 -1.29062,1.14484 -0.52104,1.62047 1.59306,0.98456 1.40019,3.16474 -0.44301,5.00794 -1.61733,1.61733 -4.58356,2.08311 -5.7619,0.90476 z m 61,0 c -1.379,-1.37899 -0.5923,-3.33333 1.3418,-3.33333 1.72982,0 1.84222,-0.26622 0.81017,-1.9188 -1.45396,-2.32816 0.33607,-5.0812 3.3038,-5.0812 2.37176,0 2.4949,2.97215 0.12756,3.07895 -1.04544,0.0472 -1.24674,0.28201 -0.5,0.58333 1.94968,0.78672 1.47638,5.1462 -0.68426,6.30254 -2.24356,1.20072 -3.46458,1.303 -4.39907,0.36851 z m 316.01821,0.0182 c -0.35666,-0.35665 -0.43166,-1.70665 -0.16667,-3 0.26498,-1.29335 0.71536,-3.47654 1.00084,-4.85154 0.41786,-2.01258 0.1254,-2.5 -1.5,-2.5 -1.12804,10e-6 -2.01905,-0.66194 -2.01905,-1.49999 0,-1.15423 1.28704,-1.5 5.58333,-1.5 4.01956,0 5.46804,0.3501 5.17168,1.25 -0.22642,0.6875 -1.38892,1.3938 -2.58334,1.56955 -1.70308,0.2506 -2.17462,1.0058 -2.18532,3.5 -0.0252,5.87712 -1.44095,8.89252 -3.30147,7.03199 z m 10.46962,-11.90351 c 0.19002,-0.98026 0.95098,-1.98391 1.691,-2.23033 0.86063,-0.28658 1.221,0.19425 1,1.33427 -0.19002,0.98026 -0.95098,1.98391 -1.691,2.23033 -0.86063,0.28658 -1.221,-0.19425 -1,-1.33427 z m -188.3445,-6.19782 -54.69001,-0.26723 -0.53005,-4.24149 c -0.29153,-2.33281 -0.77103,-22.91648 -1.06556,-45.74148 -0.29453,-22.825 -0.80252,-43.38376 -1.12889,-45.68612 -0.58538,-4.12971 -0.54824,-4.19298 2.75557,-4.6943 32.98137,-5.00456 55.05565,-9.59939 105.84894,-22.03282 14.575,-3.56773 31.6412,-7.40928 37.92489,-8.53678 12.07545,-2.16671 22.07511,-2.6734 22.07511,-1.11855 0,3.78526 -26.0475,78.75287 -36.50608,105.06857 -11.83385,29.77613 -10.84765,28.04247 -15.79071,27.75872 -2.31177,-0.13271 -28.81371,-0.36154 -58.89321,-0.50851 z m 62.07118,-14.5002 c 10.48159,-25.58114 30.72403,-81.54747 37.43446,-103.49881 l 2.52162,-8.2488 -4.16863,0.61128 c -8.45261,1.23948 -28.75643,5.69474 -50.16863,11.00848 -39.10239,9.70382 -68.0501,15.95182 -87.35912,18.85539 -5.14752,0.77405 -9.46533,1.54576 -9.59513,1.71491 -0.12981,0.16915 -0.023,19.76607 0.23726,43.5487 l 0.47328,43.24114 52.12185,0.26797 c 28.66702,0.14738 52.79705,0.37637 53.62228,0.50885 1.02324,0.16428 2.57547,-2.38285 4.88076,-8.00911 z M 100.7222,524.80477 c -4.896854,-2.67194 -5.432664,-3.43978 -5.277644,-7.56325 0.15285,-4.06593 3.3903,-8.37708 6.290754,-8.37708 4.36465,0 6.57132,7.32812 3.47979,11.55604 -1.02766,1.4054 -1.12179,2.29438 -0.34238,3.23351 1.95881,2.36022 -0.62237,3.07588 -4.15052,1.15078 z m 2.984,-7.59267 c 0.49367,-1.34583 0.31007,-2.80803 -0.48997,-3.90216 -1.20437,-1.64707 -1.40587,-1.62344 -3.431654,0.40234 -1.18369,1.18369 -2.15216,3.08205 -2.15216,4.21858 0,2.88679 4.966794,2.29902 6.073784,-0.71876 z m 403.61451,8.90234 c -0.23636,-0.4125 -0.0835,-3.59191 0.33968,-7.06537 0.74728,-6.13358 1.83201,-8.83327 2.64382,-6.57997 0.21889,0.60756 1.48654,0.89657 2.817,0.64223 1.95358,-0.37345 2.5453,0.0407 3.07535,2.15263 0.74052,2.95049 -1.7188,7.60048 -4.01981,7.60048 -0.77525,0 -1.6952,0.9 -2.04433,2 -0.64079,2.01894 -2.01983,2.63202 -2.81171,1.25 z m 6.31171,-8.86803 c 0,-0.825 -0.45,-1.22189 -1,-0.88197 -0.55,0.33992 -1,1.29303 -1,2.11803 0,0.825 0.45,1.22189 1,0.88197 0.55,-0.33992 1,-1.29303 1,-2.11803 z m -357.59308,7.23605 c -0.93916,-2.44739 0.50531,-3.93405 2.34798,-2.41658 1.39701,1.15046 1.48482,0.95641 0.76991,-1.70144 -1.22398,-4.55049 -1.15543,-6.75217 0.22519,-7.23212 0.73905,-0.25692 1.25,0.41703 1.25,1.64879 0,2.65615 1.6017,2.71444 2.28975,0.0833 0.28766,-1.1 1.01514,-2 1.61663,-2 3.36103,0 -2.07498,12.31094 -5.66085,12.82014 -1.32778,0.18854 -2.49458,-0.30558 -2.83861,-1.20212 z m -46.42176,-2.64576 c -1.27804,-2.38803 -0.50005,-8.97226 1.06015,-8.97226 0.52508,0 0.95469,1.575 0.95469,3.5 0,4.53779 1.56234,4.50194 2.65066,-0.0608 1.20937,-5.07025 2.7976,-4.31922 3.14957,1.48934 0.2568,4.23785 0.0398,4.94389 -1.5,4.87961 -0.99012,-0.0413 -2.55322,0.24483 -3.47354,0.63592 -1.15783,0.49203 -2.03319,0.0386 -2.84154,-1.47178 z m 367.14596,0.68573 c -1.39169,-1.67688 -0.47755,-2.65799 2.47653,-2.65799 3.00809,0 3.95767,-1.6858 1.40581,-2.49573 -2.86189,-0.90833 -4.33941,-4.02671 -3.04971,-6.43655 1.86621,-3.48703 7.03625,-3.86082 7.03625,-0.5087 0,0.89763 -1.03694,1.45293 -2.75,1.47266 l -2.75,0.0317 2.75,2.05173 c 3.36153,2.50797 3.59412,6.18026 0.52749,8.32821 -2.72577,1.9092 -4.19373,1.96502 -5.64637,0.21469 z m 11.44031,-0.22942 c -1.94193,-1.94193 -1.95629,-2.78366 -0.10842,-6.35705 1.69946,-3.28639 4.40224,-4.63877 5.95421,-2.9793 0.78174,0.83588 0.73028,1.28686 -0.18508,1.62207 -1.72014,0.62991 -4.23214,3.2161 -4.23214,4.35714 0,0.51071 0.9,0.92857 2,0.92857 2.37321,0 2.68424,2.52345 0.41821,3.39301 -2.11715,0.81243 -2.05411,0.82823 -3.84678,-0.96444 z m 9.62857,0.37143 c -1.79253,-1.79253 -1.44923,-6.27064 0.68253,-8.90326 1.6615,-2.05186 2.18984,-2.18479 4.5,-1.13222 3.26899,1.48946 3.58826,6.26469 0.61747,9.23548 -2.2828,2.2828 -4.07061,2.52939 -5.8,0.8 z m 4.8,-4.8 c 0,-1.11111 -0.66667,-2 -1.5,-2 -0.83333,0 -1.5,0.88889 -1.5,2 0,1.11111 0.66667,2 1.5,2 0.83333,0 1.5,-0.88889 1.5,-2 z m 17.64203,4.81955 c -2.35615,-1.31857 -2.13721,-7.32437 0.35797,-9.81955 2.41134,-2.41134 3.37011,-2.48703 5.42857,-0.42857 2.92999,2.92998 1.46188,5.79744 -3.42857,6.69657 -2.45472,0.45131 -2.45019,0.4621 0.25,0.59582 1.6091,0.0797 2.75,0.7101 2.75,1.51955 0,1.76832 -3.22147,2.63182 -5.35797,1.43618 z m 4.08714,-7.42372 c -0.33229,-0.33229 -1.1948,-0.36781 -1.91667,-0.0789 -0.79773,0.31922 -0.56078,0.55618 0.60417,0.60416 1.05416,0.0434 1.64479,-0.19293 1.3125,-0.52522 z m -403.0046,6.99541 c -1.45817,-1.45817 -0.66917,-6.44664 1.33692,-8.45273 1.14866,-1.14866 3.03057,-1.92357 4.25,-1.75 1.81805,0.25876 2.13536,0.86163 1.87454,3.56149 -0.1765,1.827 0.15189,3.25 0.75,3.25 0.58518,0 1.06397,0.675 1.06397,1.5 0,0.88484 -0.92274,1.5056 -2.25,1.51365 -1.2375,0.008 -3.16144,0.25857 -4.27543,0.55791 -1.11398,0.29934 -2.35148,0.21819 -2.75,-0.18032 z m 3.93035,-4.93437 c 0.93028,-2.42426 -0.36778,-2.86191 -1.60908,-0.54252 -0.77398,1.44619 -0.7892,2.08565 -0.0496,2.08565 0.58661,0 1.33304,-0.69441 1.65872,-1.54313 z m 8.35609,1.79313 c 0.0176,-5.99679 1.15301,-11.25 2.43153,-11.25 0.8083,0 1.1614,2.36541 1.11916,7.49731 -0.0531,6.44905 -0.30638,7.49768 -1.8117,7.5 -1.35799,0.002 -1.74753,-0.83734 -1.73899,-3.74731 z m 6.98899,1.3151 c 0,-3.58723 1.90881,-8.0577 2.97946,-6.97794 1.37944,1.39119 0.006,9.41284 -1.61113,9.41284 -0.78313,0 -1.36833,-1.04134 -1.36833,-2.4349 z m 7.58078,0.25504 c -1.04044,-3.34781 -1.36177,-8.82014 -0.51791,-8.82014 0.51542,0 0.93713,-0.64844 0.93713,-1.44098 0,-2.39589 2.09524,-2.91084 2.68394,-0.65964 0.30213,1.15534 0.94684,2.10062 1.43269,2.10062 0.48585,0 0.88337,0.675 0.88337,1.5 0,0.825 -0.675,1.5 -1.5,1.5 -0.83333,0 -1.5,0.88889 -1.5,2 0,1.15789 0.66667,2 1.58333,2 0.87084,0 1.39809,0.5625 1.17168,1.25 -0.57073,1.73299 -4.67237,2.18494 -5.17423,0.57014 z m -6.58078,-11.32014 c 0,-0.825 0.675,-1.5 1.5,-1.5 0.825,0 1.5,0.675 1.5,1.5 0,0.825 -0.675,1.5 -1.5,1.5 -0.825,0 -1.5,-0.675 -1.5,-1.5 z"
         id="path1251"
         inkscape:connector-curvature="0" />
      <path
         sodipodi:nodetypes="cssssc"
         inkscape:connector-curvature="0"
         id="path1184"
         d="m 231.56829,539.68801 8.10408,-0.22829 c 46.87196,-1.32034 146.45083,-10.98194 146.8811,-2.58946 1.8371,35.83261 1.03769,117.83181 -2.79005,130.45613 -1.04469,3.44551 -111.67777,-4.83525 -144.68135,-6.0414 -8.78302,-0.32098 0.5903,-121.82527 0.5903,-121.82527"
         style="fill:#ffffff;fill-opacity:1;stroke:#afcfed;stroke-width:7.5;stroke-linecap:round;stroke-linejoin:miter;stroke-miterlimit:4;stroke-dasharray:none;stroke-opacity:1" />
      <g
         transform="translate(24.198101,150.66737)"
         id="g1190">
        <path
           style="display:inline;fill:none;fill-opacity:1;stroke:#335b7d;stroke-width:7.5;stroke-linecap:round;stroke-linejoin:miter;stroke-miterlimit:4;stroke-dasharray:none;stroke-dashoffset:0;stroke-opacity:1"
           d="m 176.77907,351.95302 c 0,0 40.04901,42.67114 109.06262,96.79237 65.82177,51.61816 109.63334,102.04291 109.63334,102.04291"
           id="path857"
           inkscape:connector-curvature="0"
           sodipodi:nodetypes="csc" />
        <path
           style="display:inline;fill:none;fill-opacity:1;stroke:#335b7d;stroke-width:7.5;stroke-linecap:round;stroke-linejoin:miter;stroke-miterlimit:4;stroke-dasharray:none;stroke-dashoffset:0;stroke-opacity:1"
           d="m 398.26266,359.42565 c 0,0 -46.66924,30.57209 -111.11719,89.03071 -61.95665,56.19887 -106.89392,89.94387 -106.89392,89.94387"
           id="path857-3"
           inkscape:connector-curvature="0"
           sodipodi:nodetypes="csc" />
      </g>
      <g
         transform="translate(-64.996045,24.440689)"
         id="g1209">
        <path
           style="opacity:0.5;fill:#c8def5;fill-opacity:1;stroke:none;stroke-width:7.5;stroke-linecap:butt;stroke-linejoin:miter;stroke-miterlimit:4;stroke-dasharray:none;stroke-opacity:1"
           d="m 319.7548,526.91175 c 58.80261,-10.1329 140.18178,-34.22893 159.48404,-32.76848 0,0 -23.58,79.72555 -46.81212,126.71555 -21.94075,-0.46779 -79.47306,-0.95568 -111.54197,-1.45278 0.69958,-37.9468 -1.12995,-92.49429 -1.12995,-92.49429 z"
           id="path1186"
           inkscape:connector-curvature="0"
           sodipodi:nodetypes="scccs" />
        <path
           style="display:inline;opacity:1;fill:none;fill-opacity:1;stroke:#003260;stroke-width:7.5;stroke-linecap:butt;stroke-linejoin:miter;stroke-miterlimit:4;stroke-dasharray:none;stroke-opacity:1"
           d="m 319.22706,526.89095 c 58.80261,-10.1329 140.18177,-34.22893 159.48403,-32.76848 0,0 -23.58,79.72555 -46.81212,126.71555 -21.94074,-0.46779 -79.47305,-0.95568 -111.54196,-1.45278 0.69958,-37.9468 -1.12995,-92.49429 -1.12995,-92.49429 z"
           id="path1186-6"
           inkscape:connector-curvature="0"
           sodipodi:nodetypes="scccs" />
      </g>
    </g>
  </g>
</svg>
