<?xml version="1.0" standalone="no"?>
<!DOCTYPE svg PUBLIC "-//W3C//DTD SVG 20010904//EN"
 "http://www.w3.org/TR/2001/REC-SVG-20010904/DTD/svg10.dtd">
<svg version="1.0" xmlns="http://www.w3.org/2000/svg"
 width="1440.000000pt" height="1440.000000pt" viewBox="0 0 1440.000000 1440.000000"
 preserveAspectRatio="xMidYMid meet">
<metadata>
Created by potrace 1.14, written by Peter Selinger 2001-2017
</metadata>
<g transform="translate(0.000000,1440.000000) scale(0.100000,-0.100000)"
fill="#000000" stroke="none">
<path d="M13576 10253 c-1 -1 -202 -4 -446 -7 -245 -3 -447 -5 -450 -6 -3 -2
-9 -2 -13 -1 -5 1 -34 1 -65 1 -31 0 -84 0 -117 0 -33 0 -64 1 -70 0 -175 -4
-1394 -16 -2265 -21 -168 -1 -332 -5 -365 -10 -76 -11 -116 -18 -135 -22 -8
-2 -28 -7 -45 -11 -333 -79 -702 -289 -980 -556 -123 -118 -246 -260 -326
-375 -19 -27 -37 -52 -40 -55 -3 -3 -23 -34 -44 -70 -21 -36 -41 -67 -44 -70
-3 -3 -13 -18 -21 -35 -8 -16 -17 -32 -20 -35 -11 -10 -139 -278 -146 -304 -3
-14 -10 -29 -15 -32 -5 -3 -9 -12 -9 -21 0 -8 -6 -29 -14 -46 -44 -97 -148
-469 -160 -573 -3 -25 -8 -49 -10 -52 -2 -4 -7 -32 -10 -63 -4 -31 -9 -67 -12
-80 -8 -40 -20 -161 -30 -309 -11 -165 -4 -629 11 -745 5 -32 15 -144 20 -210
2 -22 4 -40 5 -40 2 0 7 -24 14 -72 3 -21 8 -49 10 -63 3 -14 7 -41 10 -60 8
-51 53 -234 78 -315 12 -38 22 -72 23 -75 1 -3 9 -22 18 -44 9 -21 17 -42 17
-47 0 -5 4 -17 9 -27 6 -9 29 -57 52 -106 176 -369 481 -615 709 -572 181 35
273 268 166 421 -38 56 -102 105 -135 105 -14 0 -87 56 -123 94 -40 43 -145
220 -154 259 -1 4 -3 9 -4 12 -1 3 -3 8 -4 13 -1 4 -4 12 -7 17 -21 35 -86
271 -104 377 -3 18 -8 40 -10 48 -4 14 -7 37 -21 145 -3 28 -8 59 -10 69 -2
11 -6 65 -9 119 -3 55 -6 103 -7 106 0 3 0 11 1 16 1 7 946 10 2814 10 1646 0
2820 4 2832 9 11 5 22 10 25 11 3 0 19 8 35 17 121 64 174 235 111 355 -14 26
-31 55 -38 63 -23 28 -85 71 -119 82 -25 8 -811 12 -2839 14 -1543 1 -2810 2
-2817 3 -6 1 -10 9 -8 19 2 10 6 49 9 87 8 89 14 136 26 204 6 30 8 57 5 59
-3 3 0 11 6 19 6 7 9 13 6 13 -3 0 1 26 8 58 8 33 16 70 19 83 3 13 16 65 30
114 135 493 402 915 751 1190 64 50 217 150 275 180 30 15 63 31 73 36 75 39
252 95 332 106 65 9 303 12 1105 18 459 3 842 5 850 5 21 0 106 2 163 3 26 1
47 -2 47 -6 0 -5 5 -5 11 -1 7 4 145 8 308 10 318 2 1187 14 1441 18 231 4
294 33 355 161 67 138 8 299 -134 366 -41 20 -63 22 -214 23 -93 1 -170 0
-171 -1z"/>
<path d="M4227 10233 c-1 -1 -409 -4 -907 -8 -498 -4 -927 -8 -954 -11 -79 -6
-158 -18 -256 -39 -14 -3 -34 -7 -45 -10 -92 -19 -328 -98 -352 -118 -7 -5
-13 -7 -13 -4 0 9 -213 -98 -315 -158 -269 -158 -528 -383 -697 -605 -32 -41
-65 -84 -73 -95 -15 -19 -40 -58 -77 -120 -57 -96 -164 -325 -151 -325 3 0 1
-6 -5 -12 -5 -7 -20 -48 -32 -91 -20 -75 -24 -90 -35 -147 -3 -14 -7 -36 -10
-50 -16 -73 -18 -267 -19 -1240 0 -972 3 -1133 20 -1240 17 -106 62 -266 105
-365 7 -16 13 -32 13 -35 9 -35 162 -308 186 -330 3 -3 16 -21 30 -40 95 -136
277 -326 425 -445 28 -22 52 -43 53 -47 2 -5 10 -8 17 -8 7 0 15 -4 17 -8 2
-5 32 -29 68 -53 36 -24 67 -47 68 -51 2 -5 7 -8 12 -8 4 0 38 -18 75 -40 84
-52 256 -140 271 -140 7 0 14 -3 16 -7 2 -5 26 -16 53 -26 28 -11 86 -32 130
-48 69 -26 196 -62 258 -75 10 -2 27 -6 37 -9 9 -3 37 -8 61 -11 24 -3 58 -8
74 -12 17 -3 2629 -7 5806 -9 l5776 -3 52 22 c100 41 171 156 165 265 -7 116
-82 213 -194 252 -20 7 -1793 10 -7100 14 -2445 1 -4456 6 -4470 10 -14 4 -38
10 -55 13 -70 12 -239 63 -305 91 -346 148 -614 344 -820 599 -53 66 -100 132
-100 142 0 7 -3 12 -7 12 -5 0 -13 10 -19 23 -81 157 -123 260 -138 337 -3 14
-7 36 -11 50 -3 14 -8 45 -11 70 -8 59 -9 2152 -1 2210 5 39 16 96 31 165 18
81 122 310 162 356 8 8 14 20 14 26 0 6 3 13 8 15 4 2 27 30 52 63 81 109 213
243 312 317 20 15 42 33 50 40 8 7 21 18 30 23 9 6 40 26 69 46 119 80 312
181 389 204 14 4 30 11 35 15 16 12 209 64 280 76 17 3 41 8 55 11 36 7 301
12 1060 18 366 3 676 7 690 8 14 2 34 0 46 -4 11 -4 27 -3 34 1 8 5 18 6 24 3
9 -6 53 -6 121 0 17 1 45 -1 63 -4 18 -4 32 -3 32 3 0 5 4 7 8 4 5 -3 51 -8
103 -11 115 -8 128 -10 155 -19 12 -3 35 -8 51 -10 85 -11 274 -80 428 -158
94 -47 296 -174 340 -215 11 -10 40 -34 65 -55 101 -82 205 -194 297 -319 41
-56 143 -232 143 -247 0 -5 9 -27 20 -49 19 -40 58 -171 66 -222 14 -91 16
-253 17 -1201 0 -965 -2 -1061 -17 -1119 -21 -79 -68 -183 -101 -227 -14 -18
-25 -35 -25 -38 0 -9 -39 -54 -115 -133 -66 -70 -78 -86 -104 -143 -12 -27
-17 -122 -8 -155 35 -127 138 -209 262 -208 110 1 143 18 260 137 215 219 355
494 391 766 9 69 9 2227 0 2295 -4 28 -8 64 -11 82 -17 134 -85 344 -162 500
-45 94 -180 315 -203 333 -3 3 -33 39 -67 80 -128 157 -330 341 -489 445 -32
22 -61 42 -64 45 -9 10 -133 83 -199 117 -36 19 -72 40 -80 46 -8 7 -17 11
-20 11 -3 -1 -29 9 -58 21 -28 13 -62 26 -75 30 -12 4 -27 11 -33 15 -9 6 -82
33 -95 35 -3 0 -9 3 -15 7 -25 15 -286 78 -385 92 -97 14 -444 29 -453 19z"/>
</g>
</svg>
